<svg width="60" height="309" viewBox="0 0 60 309" fill="none" xmlns="http://www.w3.org/2000/svg">
    <path d="M32 74V294C32 307.255 21.2548 318 8 318H0" stroke="#EFF2F5" stroke-width="3" />
    <path fill-rule="evenodd" clip-rule="evenodd"
        d="M39.2161 11.1399L39.2569 21.3548L32.1346 21.381L32.1346 21.3929L24.9404 21.4224L24.8998 11.2571H24.9051V2.89826C24.8982 2.62989 24.8538 2.37121 24.777 2.12715C24.4661 0.945427 23.3781 0.0859375 22.0963 0.0859375H21.5111C20.9487 0.0859375 20.429 0.256703 19.9972 0.548922C19.8401 0.653155 19.6936 0.772954 19.5605 0.9062C19.0533 1.41398 18.7803 2.11706 18.7803 2.8592V11.2571H18.8139L18.8547 21.4473L8.24609 21.4907L8.24619 21.5197L4.6875 21.5334L4.70248 25.4394L8.25974 25.4257L8.32412 43.9892C13.0445 43.9892 16.9067 48.0124 16.9067 53.0121V53.9105C16.9067 59.2617 21.0419 63.5583 26.1135 63.5583H26.6506L26.661 65.9022H29.0407V68.0505H26.661V70.0425H29.0407V72.1908H26.661L26.7 74.261L37.9354 74.2219V72.1518H35.5557V70.0035H37.8964V68.0114L35.5167 68.0505V65.9022H37.8964L37.886 63.5583H38.3241C43.3957 63.4802 47.4919 59.1445 47.4529 53.7933V52.8949C47.4529 47.8952 51.237 43.833 55.9964 43.833L55.9925 42.6982L56.0491 42.6979L55.9852 25.2422L59.5135 25.2287L59.4986 21.3227L55.9709 21.3363L55.9709 21.3323H55.9707L55.9705 21.2935L45.3427 21.3325L45.302 11.1399H45.3074V2.742C45.3074 1.87937 44.8946 1.11694 44.2602 0.617852C43.7744 0.220062 43.1517 0.0078125 42.4986 0.0078125H41.9134C40.392 0.0078125 39.1826 1.25773 39.1826 2.78107V11.1399H39.2161Z"
        fill="#EFF2F5" />
</svg>